<svg t="1676700483274" class="icon" viewBox="0 0 1024 1024" version="1.1" xmlns="http://www.w3.org/2000/svg" p-id="2929" width="128" height="128"><path d="M827.355853 194.58065C742.857367 110.054535 630.478903 63.523779 510.920924 63.523779c-119.55491 0-231.888348 46.530756-316.435952 131.056871C109.912807 279.084253 63.4281 391.461693 63.4281 510.973624c0 119.507838 46.530756 231.889371 131.056871 316.434929 84.503603 84.552721 196.881043 131.056871 316.435952 131.056871 119.55798 0 231.888348-46.552246 316.434929-131.056871 84.600817-84.503603 131.061988-196.880019 131.061988-316.434929C958.417841 391.414621 911.860479 279.084253 827.355853 194.58065zM510.920924 911.408689c-220.780359 0-400.389016-179.586145-400.389016-400.392086 0-220.781382 179.608657-400.389016 400.389016-400.389016 220.801848 0 400.391063 179.607634 400.391063 400.389016C911.31301 731.822544 731.723795 911.408689 510.920924 911.408689z" p-id="2930"></path><path d="M793.550932 534.567995 228.293985 534.567995c-12.995989 0-23.552415-10.576893-23.552415-23.551392 0-12.995989 10.556427-23.552415 23.552415-23.552415l565.255924 0c12.966313 0 23.554462 10.556427 23.554462 23.552415C817.104371 523.990079 806.516222 534.567995 793.550932 534.567995z" p-id="2931"></path></svg>