<svg t="1676700533542" class="icon" viewBox="0 0 1024 1024" version="1.1" xmlns="http://www.w3.org/2000/svg" p-id="3086" width="128" height="128"><path d="M231.491817 793.770432c71.830979 71.898517 171.021072 116.415406 280.480043 116.415406l0 0 0 0c109.461017 0 208.642924-44.51689 280.482089-116.415406 71.819722-71.916936 116.300796-171.213453 116.300796-280.791128l0 0 0 0 0 0c0-109.576651-44.482097-208.873168-116.300796-280.791128C720.614783 160.851455 621.432877 116.332519 511.971859 116.332519l0 0c-109.458971 0-208.649064 44.517913-280.480043 115.855658-71.260997 71.916936-115.730815 171.213453-115.730815 280.791128S159.660838 721.852472 231.491817 793.770432L231.491817 793.770432zM292.492122 487.299435l193.820334 0L486.312456 293.246811c0-13.680581 11.410887-25.660426 25.660426-25.660426l0 0c14.240329 0 25.659403 11.979846 25.659403 25.660426l0 194.052624 193.82238 0c14.259772 0 25.65838 11.419074 25.65838 25.679869l0 0c0 14.259772-11.399631 25.679869-25.65838 25.679869L537.632285 538.659173l0 194.033182c0 14.278191-11.419074 25.678846-25.659403 25.678846l0 0c-14.249539 0-25.660426-11.400654-25.660426-25.678846L486.312456 538.659173 292.492122 538.659173c-13.68979 0-25.660426-11.420097-25.660426-25.679869l0 0C266.831696 498.718509 278.802332 487.299435 292.492122 487.299435L292.492122 487.299435zM195.001741 195.670471C276.521383 114.632807 388.262326 64.394612 511.971859 64.394612l0 0c123.701346 0 236.021481 50.238195 316.961932 131.275859 80.959893 81.615832 131.12134 193.45399 131.12134 317.309856 0 123.836423-50.161447 236.272191-131.12134 317.309856-80.941474 81.035618-193.260585 131.255393-316.961932 131.255393-123.710556 0-235.450477-50.218752-316.971142-131.255393C114.051057 749.251495 63.881424 636.815727 63.881424 512.979304 63.881424 389.123438 114.051057 277.286304 195.001741 195.670471L195.001741 195.670471z" fill="#231915" p-id="3087"></path></svg>